<svg width="118" height="58" viewBox="0 0 118 58" fill="none" xmlns="http://www.w3.org/2000/svg">
<path d="M42.3622 45.2727H43.9432V50.9744C43.9432 51.5994 43.7955 52.1491 43.5 52.6236C43.2074 53.098 42.7955 53.4687 42.2642 53.7358C41.733 54 41.1122 54.1321 40.402 54.1321C39.6889 54.1321 39.0668 54 38.5355 53.7358C38.0043 53.4687 37.5923 53.098 37.2997 52.6236C37.0071 52.1491 36.8608 51.5994 36.8608 50.9744V45.2727H38.4418V50.8423C38.4418 51.206 38.5213 51.5298 38.6804 51.8139C38.8423 52.098 39.0696 52.321 39.3622 52.483C39.6548 52.642 40.0014 52.7216 40.402 52.7216C40.8026 52.7216 41.1491 52.642 41.4418 52.483C41.7372 52.321 41.9645 52.098 42.1236 51.8139C42.2827 51.5298 42.3622 51.206 42.3622 50.8423V45.2727ZM47.016 50.1648V54H45.4734V47.4545H46.9478V48.5668H47.0245C47.1751 48.2003 47.4152 47.9091 47.7447 47.6932C48.0771 47.4773 48.4876 47.3693 48.9762 47.3693C49.4279 47.3693 49.8214 47.4659 50.1566 47.6591C50.4947 47.8523 50.7561 48.1321 50.9407 48.4986C51.1282 48.8651 51.2206 49.3097 51.2177 49.8324V54H49.6751V50.071C49.6751 49.6335 49.5615 49.2912 49.3342 49.044C49.1098 48.7969 48.7987 48.6733 48.401 48.6733C48.1311 48.6733 47.891 48.733 47.6808 48.8523C47.4734 48.9687 47.31 49.1378 47.1907 49.3594C47.0742 49.581 47.016 49.8494 47.016 50.1648ZM52.6659 54V47.4545H54.2085V54H52.6659ZM53.4415 46.5256C53.1971 46.5256 52.9869 46.4446 52.8108 46.2827C52.6346 46.1179 52.5466 45.9205 52.5466 45.6903C52.5466 45.4574 52.6346 45.2599 52.8108 45.098C52.9869 44.9332 53.1971 44.8509 53.4415 44.8509C53.6886 44.8509 53.8988 44.9332 54.0721 45.098C54.2483 45.2599 54.3363 45.4574 54.3363 45.6903C54.3363 45.9205 54.2483 46.1179 54.0721 46.2827C53.8988 46.4446 53.6886 46.5256 53.4415 46.5256ZM58.5725 54.1278C57.9163 54.1278 57.3495 53.9915 56.8722 53.7188C56.3978 53.4432 56.0328 53.054 55.7771 52.5511C55.5214 52.0455 55.3936 51.4503 55.3936 50.7656C55.3936 50.0923 55.5214 49.5014 55.7771 48.9929C56.0356 48.4815 56.3964 48.0838 56.8595 47.7997C57.3225 47.5128 57.8666 47.3693 58.4916 47.3693C58.895 47.3693 59.2757 47.4347 59.6336 47.5653C59.9944 47.6932 60.3126 47.892 60.5882 48.1619C60.8666 48.4318 61.0853 48.7756 61.2444 49.1932C61.4035 49.608 61.483 50.1023 61.483 50.6761V51.1491H56.118V50.1094H60.0043C60.0015 49.8139 59.9376 49.5511 59.8126 49.321C59.6876 49.0881 59.5129 48.9048 59.2884 48.7713C59.0668 48.6378 58.8083 48.571 58.5129 48.571C58.1975 48.571 57.9205 48.6477 57.6819 48.8011C57.4433 48.9517 57.2572 49.1506 57.1237 49.3977C56.993 49.642 56.9262 49.9105 56.9234 50.2031V51.1108C56.9234 51.4915 56.993 51.8182 57.1322 52.0909C57.2714 52.3608 57.466 52.5682 57.716 52.7131C57.966 52.8551 58.2586 52.9261 58.5938 52.9261C58.8183 52.9261 59.0214 52.8949 59.2032 52.8324C59.385 52.767 59.5427 52.6719 59.6762 52.5469C59.8097 52.4219 59.9106 52.267 59.9788 52.0824L61.4191 52.2443C61.3282 52.625 61.1549 52.9574 60.8992 53.2415C60.6464 53.5227 60.3225 53.7415 59.9276 53.8977C59.5328 54.0511 59.0811 54.1278 58.5725 54.1278ZM68.3272 47.4545L65.9962 54H64.2917L61.9607 47.4545H63.6056L65.1098 52.3168H65.178L66.6865 47.4545H68.3272ZM71.9497 54.1278C71.2935 54.1278 70.7267 53.9915 70.2494 53.7188C69.775 53.4432 69.4099 53.054 69.1543 52.5511C68.8986 52.0455 68.7707 51.4503 68.7707 50.7656C68.7707 50.0923 68.8986 49.5014 69.1543 48.9929C69.4128 48.4815 69.7736 48.0838 70.2366 47.7997C70.6997 47.5128 71.2438 47.3693 71.8688 47.3693C72.2722 47.3693 72.6528 47.4347 73.0108 47.5653C73.3716 47.6932 73.6898 47.892 73.9653 48.1619C74.2438 48.4318 74.4625 48.7756 74.6216 49.1932C74.7807 49.608 74.8602 50.1023 74.8602 50.6761V51.1491H69.4952V50.1094H73.3815C73.3787 49.8139 73.3148 49.5511 73.1898 49.321C73.0648 49.0881 72.8901 48.9048 72.6656 48.7713C72.444 48.6378 72.1855 48.571 71.8901 48.571C71.5747 48.571 71.2977 48.6477 71.0591 48.8011C70.8205 48.9517 70.6344 49.1506 70.5009 49.3977C70.3702 49.642 70.3034 49.9105 70.3006 50.2031V51.1108C70.3006 51.4915 70.3702 51.8182 70.5094 52.0909C70.6486 52.3608 70.8432 52.5682 71.0932 52.7131C71.3432 52.8551 71.6358 52.9261 71.971 52.9261C72.1955 52.9261 72.3986 52.8949 72.5804 52.8324C72.7622 52.767 72.9199 52.6719 73.0534 52.5469C73.1869 52.4219 73.2878 52.267 73.356 52.0824L74.7963 52.2443C74.7054 52.625 74.5321 52.9574 74.2764 53.2415C74.0236 53.5227 73.6997 53.7415 73.3048 53.8977C72.9099 54.0511 72.4582 54.1278 71.9497 54.1278ZM77.5879 50.1648V54H76.0453V47.4545H77.5197V48.5668H77.5964C77.747 48.2003 77.987 47.9091 78.3166 47.6932C78.649 47.4773 79.0595 47.3693 79.5481 47.3693C79.9998 47.3693 80.3933 47.4659 80.7285 47.6591C81.0666 47.8523 81.3279 48.1321 81.5126 48.4986C81.7001 48.8651 81.7924 49.3097 81.7896 49.8324V54H80.247V50.071C80.247 49.6335 80.1333 49.2912 79.9061 49.044C79.6816 48.7969 79.3706 48.6733 78.9728 48.6733C78.7029 48.6733 78.4629 48.733 78.2527 48.8523C78.0453 48.9687 77.8819 49.1378 77.7626 49.3594C77.6461 49.581 77.5879 49.8494 77.5879 50.1648ZM86.5062 47.4545V48.6477H82.7435V47.4545H86.5062ZM83.6724 45.8864H85.215V52.0312C85.215 52.2386 85.2463 52.3977 85.3088 52.5085C85.3741 52.6165 85.4594 52.6903 85.5645 52.7301C85.6696 52.7699 85.7861 52.7898 85.9139 52.7898C86.0105 52.7898 86.0986 52.7827 86.1781 52.7685C86.2605 52.7543 86.323 52.7415 86.3656 52.7301L86.6256 53.9361C86.5432 53.9645 86.4253 53.9957 86.2719 54.0298C86.1213 54.0639 85.9366 54.0838 85.7179 54.0895C85.3315 54.1009 84.9835 54.0426 84.6738 53.9148C84.3642 53.7841 84.1185 53.5824 83.9366 53.3097C83.7577 53.0369 83.6696 52.696 83.6724 52.2869V45.8864ZM92.7559 49.1847L91.3497 49.3381C91.3099 49.196 91.2403 49.0625 91.1409 48.9375C91.0443 48.8125 90.9136 48.7116 90.7488 48.6349C90.584 48.5582 90.3823 48.5199 90.1437 48.5199C89.8227 48.5199 89.5528 48.5895 89.334 48.7287C89.1181 48.8679 89.0116 49.0483 89.0144 49.2699C89.0116 49.4602 89.0812 49.6151 89.2232 49.7344C89.3681 49.8537 89.6068 49.9517 89.9391 50.0284L91.0556 50.267C91.6749 50.4006 92.1352 50.6122 92.4363 50.902C92.7403 51.1918 92.8937 51.571 92.8965 52.0398C92.8937 52.4517 92.773 52.8153 92.5343 53.1307C92.2985 53.4432 91.9704 53.6875 91.5499 53.8636C91.1295 54.0398 90.6465 54.1278 90.1011 54.1278C89.2999 54.1278 88.6551 53.9602 88.1664 53.625C87.6778 53.2869 87.3866 52.8168 87.2928 52.2145L88.7971 52.0696C88.8653 52.3651 89.0102 52.5881 89.2318 52.7386C89.4534 52.8892 89.7417 52.9645 90.0968 52.9645C90.4633 52.9645 90.7573 52.8892 90.9789 52.7386C91.2034 52.5881 91.3156 52.402 91.3156 52.1804C91.3156 51.9929 91.2431 51.8381 91.0982 51.7159C90.9562 51.5937 90.7346 51.5 90.4335 51.4347L89.317 51.2003C88.6891 51.0696 88.2247 50.8494 87.9235 50.5398C87.6224 50.2273 87.4732 49.8324 87.4761 49.3551C87.4732 48.9517 87.5826 48.6023 87.8042 48.3068C88.0286 48.0085 88.3397 47.7784 88.7374 47.6165C89.138 47.4517 89.5997 47.3693 90.1224 47.3693C90.8894 47.3693 91.4931 47.5327 91.9335 47.8594C92.3766 48.1861 92.6508 48.6278 92.7559 49.1847Z" fill="white"/>
<path d="M0 46C0 43.7909 1.79086 42 4 42H9C11.2091 42 13 43.7909 13 46V54C13 56.2091 11.2091 58 9 58H4C1.79086 58 0 56.2091 0 54V46Z" fill="white"/>
</svg>
